<svg id="delete" width="14" height="14" viewBox="0 0 14 14" fill="none" xmlns="http://www.w3.org/2000/svg">
<g clip-path="url(#clip0_307_197)">
<path d="M10.3827 1.62386H9.17084V1.11714C9.17084 0.501266 8.66957 0 8.0537 0H5.9713C5.35542 0 4.85416 0.501266 4.85416 1.11714V1.62386H3.64217C2.80989 1.62386 2.13281 2.30093 2.13281 3.13321V4.43022C2.13281 4.66617 2.32411 4.85715 2.55974 4.85715H2.8367L3.12328 12.6492C3.15094 13.4066 3.7666 14 4.52454 14H9.50046C10.2584 14 10.8741 13.4066 10.9016 12.6492L11.1883 4.85715H11.4651C11.7009 4.85715 11.8922 4.66617 11.8922 4.43022V3.13321C11.8922 2.30093 11.215 1.62386 10.3827 1.62386ZM9.50046 13.1461H4.52454C4.22824 13.1461 3.98749 12.9138 3.97638 12.6175L3.69119 4.85715H10.3338L10.0486 12.6175C10.0375 12.9138 9.79675 13.1461 9.50046 13.1461ZM3.64217 2.47771H10.3827C10.7435 2.47771 11.0382 2.77133 11.0382 3.13321V4.0033C10.6281 4.0033 3.38326 4.0033 2.98666 4.0033V3.13321C2.98666 2.77101 3.28168 2.47771 3.64217 2.47771ZM5.70801 1.11714C5.70801 0.971985 5.82614 0.853851 5.9713 0.853851H8.0537C8.19885 0.853851 8.31688 0.971985 8.31688 1.11714V1.62386H5.70801V1.11714Z" fill="#969696"/>
<path d="M5.70237 6.02808H5.69586C5.4598 6.03181 5.27171 6.22589 5.27545 6.46184L5.35876 11.8069C5.36218 12.0403 5.55262 12.227 5.78547 12.227H5.79231C6.02793 12.2234 6.21613 12.0292 6.2124 11.7935L6.1293 6.44849C6.12556 6.2151 5.93522 6.02808 5.70237 6.02808Z" fill="#969696"/>
<path d="M8.3292 6.02815C8.09379 6.02367 7.89939 6.21294 7.89576 6.44856L7.81255 11.7936C7.80892 12.0293 7.99702 12.2234 8.23275 12.2271H8.23958C8.47233 12.2271 8.66277 12.0404 8.66619 11.807L8.74961 6.46192C8.75335 6.22597 8.56515 6.03189 8.3292 6.02815Z" fill="#969696"/>
</g>
<defs>
<clipPath id="clip0_307_197">
<rect width="14" height="14" fill="white"/>
</clipPath>
</defs>
</svg>
