<svg id="filter" width="15" height="16" viewBox="0 0 15 16" fill="none" xmlns="http://www.w3.org/2000/svg">
<path fill-rule="evenodd" clip-rule="evenodd" d="M0.375 1.5625C0.375 1.24756 0.500111 0.94551 0.722811 0.722811C0.94551 0.500111 1.24756 0.375 1.5625 0.375H13.4375C13.7524 0.375 14.0545 0.500111 14.2772 0.722811C14.4999 0.94551 14.625 1.24756 14.625 1.5625V3.21392C14.6249 3.63381 14.458 4.03647 14.1611 4.33333L9.875 8.61942V14.4967C9.87502 14.6452 9.83709 14.7912 9.76481 14.9209C9.69253 15.0505 9.5883 15.1596 9.46202 15.2376C9.33574 15.3157 9.1916 15.3602 9.0433 15.3668C8.89499 15.3735 8.74745 15.3422 8.61467 15.2758L5.67204 13.8048C5.50767 13.7227 5.36943 13.5963 5.27281 13.44C5.17619 13.2837 5.12501 13.1035 5.125 12.9198V8.61942L0.838917 4.33333C0.541963 4.03647 0.37509 3.63381 0.375 3.21392V1.5625ZM1.95833 1.95833V3.21392L6.36 7.61558C6.4704 7.72584 6.55798 7.85678 6.61775 8.0009C6.67752 8.14503 6.7083 8.29952 6.70833 8.45554V12.5524L8.29167 13.3441V8.45554C8.29167 8.14046 8.41675 7.83804 8.64 7.61638L13.0417 3.21312V1.95833H1.95833Z" fill="white"/>
</svg>
