<svg aria-hidden="true" xmlns="http://www.w3.org/2000/svg" xmlns:xlink="http://www.w3.org/1999/xlink"><symbol id="arrow-green" viewBox="0 0 28 20" xmlns="http://www.w3.org/2000/svg"><path d="M5 11C4.44772 11 4 10.5523 4 10C4 9.44772 4.44772 9 5 9V11ZM23.7071 9.29289C24.0976 9.68342 24.0976 10.3166 23.7071 10.7071L17.3431 17.0711C16.9526 17.4616 16.3195 17.4616 15.9289 17.0711C15.5384 16.6805 15.5384 16.0474 15.9289 15.6569L21.5858 10L15.9289 4.34315C15.5384 3.95262 15.5384 3.31946 15.9289 2.92893C16.3195 2.53841 16.9526 2.53841 17.3431 2.92893L23.7071 9.29289ZM5 9L23 9V11L5 11V9Z"/></symbol><symbol id="arrow-left-white" viewBox="0 0 28 20" xmlns="http://www.w3.org/2000/svg"><path d="M23 11C23.5523 11 24 10.5523 24 10C24 9.44772 23.5523 9 23 9V11ZM4.29289 9.29289C3.90237 9.68342 3.90237 10.3166 4.29289 10.7071L10.6569 17.0711C11.0474 17.4616 11.6805 17.4616 12.0711 17.0711C12.4616 16.6805 12.4616 16.0474 12.0711 15.6569L6.41421 10L12.0711 4.34315C12.4616 3.95262 12.4616 3.31946 12.0711 2.92893C11.6805 2.53841 11.0474 2.53841 10.6569 2.92893L4.29289 9.29289ZM23 9L5 9V11L23 11V9Z"/></symbol><symbol id="arrow-right-blue" viewBox="0 0 28 20" xmlns="http://www.w3.org/2000/svg"><path d="M5 11C4.44772 11 4 10.5523 4 10C4 9.44772 4.44772 9 5 9V11ZM23.7071 9.29289C24.0976 9.68342 24.0976 10.3166 23.7071 10.7071L17.3431 17.0711C16.9526 17.4616 16.3195 17.4616 15.9289 17.0711C15.5384 16.6805 15.5384 16.0474 15.9289 15.6569L21.5858 10L15.9289 4.34315C15.5384 3.95262 15.5384 3.31946 15.9289 2.92893C16.3195 2.53841 16.9526 2.53841 17.3431 2.92893L23.7071 9.29289ZM5 9L23 9V11L5 11V9Z"/></symbol><symbol id="arrow-right-white" viewBox="0 0 9 15" xmlns="http://www.w3.org/2000/svg"><path d="M1.5 13.5L7.5 7.5L1.5 1.5" stroke-width="2" stroke-linecap="round"/></symbol><symbol id="arrow-white-down" viewBox="0 0 10 7" xmlns="http://www.w3.org/2000/svg"><path d="M1 1.5L5 5.5L9 1.5" stroke-width="2" stroke-linecap="round"/></symbol><symbol id="cart" viewBox="0 0 26 27" xmlns="http://www.w3.org/2000/svg"><path d="M23.1563 21.0938C21.5881 21.0938 20.3126 22.4187 20.3126 24.0469C20.3126 25.6755 21.5884 27 23.1563 27C24.7245 27 25.9999 25.6752 25.9999 24.0469C25.9999 22.4184 24.7245 21.0938 23.1563 21.0938ZM23.1563 25.3126C22.4861 25.3126 21.9375 24.7432 21.9375 24.0469C21.9375 23.351 22.4858 22.7812 23.1563 22.7812C23.8265 22.7812 24.3751 23.3506 24.3751 24.0469C24.3751 24.7429 23.8265 25.3126 23.1563 25.3126ZM9.34386 21.0938C7.77567 21.0938 6.5002 22.4187 6.5002 24.0469C6.5002 25.6755 7.77596 27 9.34386 27C10.912 27 12.1875 25.6752 12.1875 24.0469C12.1875 22.4184 10.9118 21.0938 9.34386 21.0938ZM9.34386 25.3126C8.67368 25.3126 8.12505 24.7432 8.12505 24.0469C8.12505 23.351 8.67338 22.7812 9.34386 22.7812C10.014 22.7812 10.5627 23.3506 10.5627 24.0469C10.5624 24.7429 10.0141 25.3126 9.34386 25.3126ZM26 12.6563V5.06246C26 4.59837 25.6384 4.21877 25.1876 4.21877H6.97102L6.49154 0.725692C6.43487 0.307813 6.09368 0 5.68732 0H0.812423C0.361575 0 0 0.379623 0 0.843682C0 1.30774 0.36159 1.68736 0.812423 1.68736H4.98458L7.32043 18.6808C7.37739 19.0987 7.71858 19.4065 8.12495 19.4065H25.1873C25.6382 19.4065 25.9998 19.0269 25.9998 18.5628C25.9998 18.0987 25.6382 17.7191 25.1873 17.7191H8.8279L8.59638 16.0318H22.7498C24.5415 16.0318 25.9998 14.5171 25.9998 12.6566L26 12.6563ZM7.20308 5.90606H24.375V12.6563C24.375 13.5885 23.6479 14.3436 22.7502 14.3436H8.36466L7.20308 5.90606Z"/></symbol><symbol id="catalog" viewBox="0 0 17 16" xmlns="http://www.w3.org/2000/svg"><circle cx="4.5" cy="4.5" r="2.75" stroke-width="1.5"/><circle cx="4.5" cy="12.5" r="2.75" stroke-width="1.5"/><circle cx="12.5" cy="12.5" r="2.75" stroke-width="1.5"/><path d="M9.35355 4.14645L12.1464 1.35355C12.3417 1.15829 12.6583 1.15829 12.8536 1.35355L15.6464 4.14645C15.8417 4.34171 15.8417 4.65829 15.6464 4.85355L12.8536 7.64645C12.6583 7.84171 12.3417 7.84171 12.1464 7.64645L9.35355 4.85355C9.15829 4.65829 9.15829 4.34171 9.35355 4.14645Z" stroke-width="1.5"/></symbol><symbol id="close" viewBox="0 0 14 14" xmlns="http://www.w3.org/2000/svg"><path d="M14 1.41L12.59 0L7 5.59L1.41 0L0 1.41L5.59 7L0 12.59L1.41 14L7 8.41L12.59 14L14 12.59L8.41 7L14 1.41Z"/></symbol><symbol id="delete" viewBox="0 0 14 14" xmlns="http://www.w3.org/2000/svg"><g clip-path="url(#iclip0_307_197)"><path d="M10.3827 1.62386H9.17084V1.11714C9.17084 0.501266 8.66957 0 8.0537 0H5.9713C5.35542 0 4.85416 0.501266 4.85416 1.11714V1.62386H3.64217C2.80989 1.62386 2.13281 2.30093 2.13281 3.13321V4.43022C2.13281 4.66617 2.32411 4.85715 2.55974 4.85715H2.8367L3.12328 12.6492C3.15094 13.4066 3.7666 14 4.52454 14H9.50046C10.2584 14 10.8741 13.4066 10.9016 12.6492L11.1883 4.85715H11.4651C11.7009 4.85715 11.8922 4.66617 11.8922 4.43022V3.13321C11.8922 2.30093 11.215 1.62386 10.3827 1.62386ZM9.50046 13.1461H4.52454C4.22824 13.1461 3.98749 12.9138 3.97638 12.6175L3.69119 4.85715H10.3338L10.0486 12.6175C10.0375 12.9138 9.79675 13.1461 9.50046 13.1461ZM3.64217 2.47771H10.3827C10.7435 2.47771 11.0382 2.77133 11.0382 3.13321V4.0033C10.6281 4.0033 3.38326 4.0033 2.98666 4.0033V3.13321C2.98666 2.77101 3.28168 2.47771 3.64217 2.47771ZM5.70801 1.11714C5.70801 0.971985 5.82614 0.853851 5.9713 0.853851H8.0537C8.19885 0.853851 8.31688 0.971985 8.31688 1.11714V1.62386H5.70801V1.11714Z"/><path d="M5.70237 6.02808H5.69586C5.4598 6.03181 5.27171 6.22589 5.27545 6.46184L5.35876 11.8069C5.36218 12.0403 5.55262 12.227 5.78547 12.227H5.79231C6.02793 12.2234 6.21613 12.0292 6.2124 11.7935L6.1293 6.44849C6.12556 6.2151 5.93522 6.02808 5.70237 6.02808Z"/><path d="M8.3292 6.02815C8.09379 6.02367 7.89939 6.21294 7.89576 6.44856L7.81255 11.7936C7.80892 12.0293 7.99702 12.2234 8.23275 12.2271H8.23958C8.47233 12.2271 8.66277 12.0404 8.66619 11.807L8.74961 6.46192C8.75335 6.22597 8.56515 6.03189 8.3292 6.02815Z"/></g><defs><clipPath id="iclip0_307_197"><rect width="14" height="14"/></clipPath></defs></symbol><symbol id="email" viewBox="0 0 17 13" xmlns="http://www.w3.org/2000/svg"><path d="M0 13V0H17V13H0ZM8.5 7.3125L15.3 3.25V1.625L8.5 5.6875L1.7 1.625V3.25L8.5 7.3125Z"/></symbol><symbol id="facebook" viewBox="0 0 9 18" xmlns="http://www.w3.org/2000/svg"><path d="M6 10.35H8.14286L9 6.75H6V4.95C6 4.023 6 3.15 7.71429 3.15H9V0.126C8.72057 0.0873001 7.66543 0 6.55114 0C4.224 0 2.57143 1.4913 2.57143 4.23V6.75H0V10.35H2.57143V18H6V10.35Z"/></symbol><symbol id="filter" viewBox="0 0 15 16" xmlns="http://www.w3.org/2000/svg"><path fill-rule="evenodd" clip-rule="evenodd" d="M0.375 1.5625C0.375 1.24756 0.500111 0.94551 0.722811 0.722811C0.94551 0.500111 1.24756 0.375 1.5625 0.375H13.4375C13.7524 0.375 14.0545 0.500111 14.2772 0.722811C14.4999 0.94551 14.625 1.24756 14.625 1.5625V3.21392C14.6249 3.63381 14.458 4.03647 14.1611 4.33333L9.875 8.61942V14.4967C9.87502 14.6452 9.83709 14.7912 9.76481 14.9209C9.69253 15.0505 9.5883 15.1596 9.46202 15.2376C9.33574 15.3157 9.1916 15.3602 9.0433 15.3668C8.89499 15.3735 8.74745 15.3422 8.61467 15.2758L5.67204 13.8048C5.50767 13.7227 5.36943 13.5963 5.27281 13.44C5.17619 13.2837 5.12501 13.1035 5.125 12.9198V8.61942L0.838917 4.33333C0.541963 4.03647 0.37509 3.63381 0.375 3.21392V1.5625ZM1.95833 1.95833V3.21392L6.36 7.61558C6.4704 7.72584 6.55798 7.85678 6.61775 8.0009C6.67752 8.14503 6.7083 8.29952 6.70833 8.45554V12.5524L8.29167 13.3441V8.45554C8.29167 8.14046 8.41675 7.83804 8.64 7.61638L13.0417 3.21312V1.95833H1.95833Z"/></symbol><symbol id="instagram" viewBox="0 0 18 18" xmlns="http://www.w3.org/2000/svg"><path d="M9.92521 0.00110732C10.5819 -0.0014128 11.2387 0.00518768 11.8952 0.0209067L12.0698 0.0272065C12.2714 0.0344062 12.4703 0.0434059 12.7106 0.0542055C13.6681 0.099204 14.3215 0.250399 14.8948 0.472691C15.4887 0.701284 15.9891 1.01087 16.4895 1.51126C16.947 1.96089 17.3011 2.50477 17.5271 3.1051C17.7494 3.67838 17.9006 4.33266 17.9456 5.29023C17.9564 5.52962 17.9654 5.72941 17.9726 5.93101L17.978 6.1056C17.994 6.76185 18.0009 7.41829 17.9987 8.07473L17.9996 8.74611V9.92507C18.0018 10.5818 17.9949 11.2386 17.9789 11.8951L17.9735 12.0697C17.9663 12.2713 17.9573 12.4702 17.9465 12.7105C17.9015 13.668 17.7485 14.3214 17.5271 14.8947C17.3018 15.4957 16.9476 16.04 16.4895 16.4894C16.0395 16.9469 15.4953 17.301 14.8948 17.5271C14.3215 17.7494 13.6681 17.9006 12.7106 17.9456C12.4703 17.9564 12.2714 17.9654 12.0698 17.9726L11.8952 17.978C11.2387 17.994 10.5819 18.0009 9.92521 17.9987L9.25384 17.9996H8.0758C7.41907 18.0018 6.76235 17.9949 6.10581 17.9789L5.93122 17.9735C5.71758 17.9658 5.50398 17.9568 5.29045 17.9465C4.3329 17.9015 3.67953 17.7485 3.10536 17.5271C2.50481 17.3015 1.96083 16.9474 1.51154 16.4894C1.05351 16.0397 0.699085 15.4955 0.472995 14.8947C0.250706 14.3214 0.0995141 13.668 0.0545165 12.7105C0.0444936 12.4969 0.035494 12.2833 0.0275179 12.0697L0.0230182 11.8951C0.00642628 11.2386 -0.00107414 10.5818 0.000519274 9.92507V8.07473C-0.00199247 7.41829 0.0046079 6.76185 0.0203183 6.1056L0.026618 5.93101C0.0338176 5.72941 0.0428171 5.52962 0.0536166 5.29023C0.0986143 4.33176 0.249806 3.67928 0.472095 3.1051C0.698319 2.50448 1.05343 1.96074 1.51244 1.51216C1.96142 1.05385 2.50506 0.699099 3.10536 0.472691C3.67953 0.250399 4.332 0.099204 5.29045 0.0542055L5.93122 0.0272065L6.10581 0.0227067C6.76204 0.00612283 7.41847 -0.00137772 8.07491 0.000207414L9.92521 0.00110732ZM9.00006 4.50095C8.40384 4.49252 7.8119 4.60267 7.25863 4.825C6.70535 5.04734 6.20178 5.37742 5.77718 5.79606C5.35258 6.2147 5.01542 6.71356 4.78529 7.26365C4.55516 7.81373 4.43665 8.40407 4.43665 9.00035C4.43665 9.59663 4.55516 10.187 4.78529 10.7371C5.01542 11.2871 5.35258 11.786 5.77718 12.2046C6.20178 12.6233 6.70535 12.9534 7.25863 13.1757C7.8119 13.398 8.40384 13.5082 9.00006 13.4997C10.1935 13.4997 11.338 13.0257 12.1819 12.1818C13.0257 11.3379 13.4998 10.1933 13.4998 8.9999C13.4998 7.80647 13.0257 6.66191 12.1819 5.81803C11.338 4.97414 10.1935 4.50095 9.00006 4.50095ZM9.00006 6.30089C9.3587 6.29428 9.71506 6.35921 10.0483 6.49187C10.3816 6.62454 10.6851 6.82228 10.9411 7.07356C11.197 7.32483 11.4004 7.6246 11.5392 7.95534C11.6781 8.28609 11.7496 8.64119 11.7497 8.99989C11.7497 9.3586 11.6783 9.71372 11.5396 10.0445C11.4009 10.3753 11.1976 10.6751 10.9417 10.9265C10.6858 11.1779 10.3824 11.3757 10.0492 11.5085C9.71594 11.6413 9.3596 11.7063 9.00096 11.6998C8.28491 11.6998 7.59819 11.4154 7.09187 10.909C6.58555 10.4027 6.3011 9.71596 6.3011 8.9999C6.3011 8.28384 6.58555 7.59711 7.09187 7.09078C7.59819 6.58445 8.28491 6.29999 9.00096 6.29999L9.00006 6.30089ZM13.7248 3.151C13.4345 3.16262 13.1599 3.28613 12.9586 3.49566C12.7573 3.70519 12.6449 3.98449 12.6449 4.27506C12.6449 4.56563 12.7573 4.84493 12.9586 5.05446C13.1599 5.26399 13.4345 5.3875 13.7248 5.39912C14.0232 5.39912 14.3093 5.2806 14.5203 5.06963C14.7312 4.85866 14.8498 4.57252 14.8498 4.27416C14.8498 3.9758 14.7312 3.68967 14.5203 3.47869C14.3093 3.26772 14.0232 3.1492 13.7248 3.1492V3.151Z"/></symbol><symbol id="lang-arrow" viewBox="0 0 10 7" xmlns="http://www.w3.org/2000/svg"><path d="M1 1.5L5 5.5L9 1.5" stroke-width="2" stroke-linecap="round"/></symbol><symbol id="location" viewBox="0 0 14 20" xmlns="http://www.w3.org/2000/svg"><path d="M7 9.5C6.33696 9.5 5.70107 9.23661 5.23223 8.76777C4.76339 8.29893 4.5 7.66304 4.5 7C4.5 6.33696 4.76339 5.70107 5.23223 5.23223C5.70107 4.76339 6.33696 4.5 7 4.5C7.66304 4.5 8.29893 4.76339 8.76777 5.23223C9.23661 5.70107 9.5 6.33696 9.5 7C9.5 7.3283 9.43534 7.65339 9.3097 7.95671C9.18406 8.26002 8.99991 8.53562 8.76777 8.76777C8.53562 8.99991 8.26002 9.18406 7.95671 9.3097C7.65339 9.43534 7.3283 9.5 7 9.5ZM7 0C5.14348 0 3.36301 0.737498 2.05025 2.05025C0.737498 3.36301 0 5.14348 0 7C0 12.25 7 20 7 20C7 20 14 12.25 14 7C14 5.14348 13.2625 3.36301 11.9497 2.05025C10.637 0.737498 8.85652 0 7 0Z"/></symbol><symbol id="phone-blue" viewBox="0 0 16 16" xmlns="http://www.w3.org/2000/svg"><path d="M15.9146 12.6134C15.1717 11.0624 13.9046 10.0505 12.0944 9.59885C11.8225 9.53101 11.5336 9.59841 11.3166 9.77573L9.81323 11.0041C9.51968 11.244 9.10479 11.2749 8.78215 11.0758C7.19186 10.0949 5.90515 8.80814 4.92416 7.21785C4.72514 6.89522 4.75604 6.48032 4.99589 6.18678L6.22428 4.6834C6.4016 4.46638 6.46899 4.17748 6.40114 3.90556C5.94951 2.09543 4.93758 0.828301 3.38659 0.0854086C3.13637 -0.0344481 2.8412 -0.0277533 2.59648 0.102954C1.81655 0.51948 1.07038 0.99078 0.363457 1.52076C0.0927761 1.72369 -0.0438016 2.05923 0.0125243 2.39281C0.520706 5.40256 2.14695 8.56762 4.78967 11.2103C7.43238 13.8531 10.5974 15.4793 13.6072 15.9875C13.9408 16.0438 14.2763 15.9072 14.4792 15.6365C15.0092 14.9296 15.4805 14.1835 15.8971 13.4035C16.0277 13.1588 16.0345 12.8636 15.9146 12.6134Z"/></symbol><symbol id="scales" viewBox="0 0 26 27" xmlns="http://www.w3.org/2000/svg"><path d="M25.2877 14.8222L22.011 4.4884H22.0466C22.5096 4.4884 22.8658 4.14046 22.8658 3.68814C22.8658 3.23582 22.5096 2.88789 22.0466 2.88789H13.8192V0.800258C13.8192 0.347938 13.463 0 13 0C12.537 0 12.1808 0.347938 12.1808 0.800258V2.88789H3.91781C3.45479 2.88789 3.09863 3.23582 3.09863 3.68814C3.09863 4.14046 3.45479 4.4884 3.91781 4.4884H3.95342L0.676712 14.8222C0.284931 14.8918 0 15.2049 0 15.5876C0 18.3015 2.24384 20.4936 5.02192 20.4936C7.8 20.4936 10.0438 18.3015 10.0438 15.5876C10.0438 15.2049 9.7589 14.857 9.36712 14.8222L6.09041 4.4884H12.1808V21.3982C9.83014 21.7809 8.0137 23.799 8.0137 26.1997C8.0137 26.6521 8.36986 27 8.83288 27H17.2384C17.7014 27 18.0575 26.6521 18.0575 26.1997C18.0575 26.1649 18.0575 26.0954 18.0575 26.0606C17.9863 23.6946 16.1699 21.7461 13.8192 21.3634V4.4884H19.9096L16.6329 14.8222C16.2411 14.8918 15.9562 15.2049 15.9562 15.5876C15.9562 18.3015 18.2 20.4936 20.9781 20.4936C23.7562 20.4936 26 18.3015 26 15.5876C25.9644 15.2049 25.6795 14.8918 25.2877 14.8222ZM5.05753 18.893C3.49041 18.893 2.13699 17.8144 1.78082 16.3879H8.33425C7.94247 17.8492 6.62466 18.893 5.05753 18.893ZM5.09315 14.7874H2.42192L5.05753 6.50644L7.65753 14.7874H5.09315ZM16.3123 25.3995H9.75891C10.1151 23.9729 11.4685 22.8943 13.0356 22.8943C14.6384 22.8943 15.9562 23.9729 16.3123 25.3995ZM20.9425 6.50644L23.5781 14.7874H21.0137H18.3425L20.9425 6.50644ZM20.9425 18.893C19.3753 18.893 18.0219 17.8144 17.6658 16.3879H24.2192C23.863 17.8492 22.5452 18.893 20.9425 18.893Z"/></symbol><symbol id="scales-green" viewBox="0 0 26 27" xmlns="http://www.w3.org/2000/svg"><path d="M25.2877 14.8222L22.011 4.4884H22.0466C22.5096 4.4884 22.8658 4.14046 22.8658 3.68814C22.8658 3.23582 22.5096 2.88789 22.0466 2.88789H13.8192V0.800258C13.8192 0.347938 13.463 0 13 0C12.537 0 12.1808 0.347938 12.1808 0.800258V2.88789H3.91781C3.45479 2.88789 3.09863 3.23582 3.09863 3.68814C3.09863 4.14046 3.45479 4.4884 3.91781 4.4884H3.95342L0.676712 14.8222C0.284931 14.8918 0 15.2049 0 15.5876C0 18.3015 2.24384 20.4936 5.02192 20.4936C7.8 20.4936 10.0438 18.3015 10.0438 15.5876C10.0438 15.2049 9.7589 14.857 9.36712 14.8222L6.09041 4.4884H12.1808V21.3982C9.83014 21.7809 8.0137 23.799 8.0137 26.1997C8.0137 26.6521 8.36986 27 8.83288 27H17.2384C17.7014 27 18.0575 26.6521 18.0575 26.1997C18.0575 26.1649 18.0575 26.0954 18.0575 26.0606C17.9863 23.6946 16.1699 21.7461 13.8192 21.3634V4.4884H19.9096L16.6329 14.8222C16.2411 14.8918 15.9562 15.2049 15.9562 15.5876C15.9562 18.3015 18.2 20.4936 20.9781 20.4936C23.7562 20.4936 26 18.3015 26 15.5876C25.9644 15.2049 25.6795 14.8918 25.2877 14.8222ZM5.05753 18.893C3.49041 18.893 2.13699 17.8144 1.78082 16.3879H8.33425C7.94247 17.8492 6.62466 18.893 5.05753 18.893ZM5.09315 14.7874H2.42192L5.05753 6.50644L7.65753 14.7874H5.09315ZM16.3123 25.3995H9.75891C10.1151 23.9729 11.4685 22.8943 13.0356 22.8943C14.6384 22.8943 15.9562 23.9729 16.3123 25.3995ZM20.9425 6.50644L23.5781 14.7874H21.0137H18.3425L20.9425 6.50644ZM20.9425 18.893C19.3753 18.893 18.0219 17.8144 17.6658 16.3879H24.2192C23.863 17.8492 22.5452 18.893 20.9425 18.893Z"/></symbol><symbol id="search" viewBox="0 0 26 26" xmlns="http://www.w3.org/2000/svg"><path d="M3.01724 3.04105C4.97268 1.08005 7.57482 0 10.3448 0C13.1023 0 15.6962 1.07239 17.6487 3.01871C21.5015 6.85999 21.6866 13.0078 18.2013 17.0734L25.7662 24.6385C26.0779 24.9503 26.0779 25.455 25.7662 25.7664C25.6105 25.9221 25.4067 26 25.2021 26C24.9983 26 24.7941 25.9221 24.6381 25.7664L17.0741 18.2019C15.2004 19.8123 12.8416 20.6929 10.3448 20.6929C7.58727 20.6929 4.99437 19.6205 3.04404 17.6736C1.08605 15.7237 0.00512314 13.1275 1.71661e-05 10.3631C-0.0050869 7.59864 1.06627 4.9979 3.01724 3.04105ZM4.17059 16.5434C5.82006 18.1905 8.01287 19.0973 10.3448 19.0973C12.6879 19.0973 14.8893 18.1831 16.5432 16.5236C19.9481 13.1061 19.9388 7.55492 16.5228 4.14854C14.8708 2.50214 12.6773 1.59535 10.3451 1.59535C8.00203 1.59535 5.80124 2.50884 4.1473 4.168C2.4972 5.8227 1.5911 8.02172 1.59557 10.3599C1.60004 12.698 2.51379 14.8938 4.17059 16.5434Z"/></symbol><symbol id="star-blue" viewBox="0 0 16 15" xmlns="http://www.w3.org/2000/svg"><path d="M7.52447 1.08156C7.67415 0.620903 8.32585 0.620904 8.47553 1.08156L9.5451 4.37336C9.74591 4.99139 10.3218 5.40983 10.9717 5.40983H14.4329C14.9172 5.40983 15.1186 6.02964 14.7268 6.31434L11.9266 8.34878C11.4009 8.73075 11.1809 9.4078 11.3817 10.0258L12.4513 13.3176C12.6009 13.7783 12.0737 14.1613 11.6818 13.8766L8.88168 11.8422C8.35595 11.4602 7.64405 11.4602 7.11832 11.8422L4.31815 13.8766C3.9263 14.1613 3.39906 13.7783 3.54873 13.3176L4.6183 10.0258C4.81911 9.4078 4.59913 8.73075 4.07339 8.34878L1.27323 6.31434C0.881369 6.02964 1.08276 5.40983 1.56712 5.40983H5.02832C5.67816 5.40983 6.25409 4.99139 6.4549 4.37336L7.52447 1.08156Z"/></symbol><symbol id="star-gray" viewBox="0 0 16 15" xmlns="http://www.w3.org/2000/svg"><path d="M7.04894 0.92705C7.3483 0.00573921 8.6517 0.00573969 8.95106 0.92705L10.0206 4.21885C10.1545 4.63087 10.5385 4.90983 10.9717 4.90983H14.4329C15.4016 4.90983 15.8044 6.14945 15.0207 6.71885L12.2205 8.75329C11.87 9.00793 11.7234 9.4593 11.8572 9.87132L12.9268 13.1631C13.2261 14.0844 12.1717 14.8506 11.388 14.2812L8.58778 12.2467C8.2373 11.9921 7.7627 11.9921 7.41221 12.2467L4.61204 14.2812C3.82833 14.8506 2.77385 14.0844 3.0732 13.1631L4.14277 9.87132C4.27665 9.4593 4.12999 9.00793 3.7795 8.75329L0.979333 6.71885C0.195619 6.14945 0.598395 4.90983 1.56712 4.90983H5.02832C5.46154 4.90983 5.8455 4.63087 5.97937 4.21885L7.04894 0.92705Z"/></symbol><symbol id="star-yellow" viewBox="0 0 16 15" xmlns="http://www.w3.org/2000/svg"><path d="M7.04894 0.92705C7.3483 0.00573921 8.6517 0.00573969 8.95106 0.92705L10.0206 4.21885C10.1545 4.63087 10.5385 4.90983 10.9717 4.90983H14.4329C15.4016 4.90983 15.8044 6.14945 15.0207 6.71885L12.2205 8.75329C11.87 9.00793 11.7234 9.4593 11.8572 9.87132L12.9268 13.1631C13.2261 14.0844 12.1717 14.8506 11.388 14.2812L8.58778 12.2467C8.2373 11.9921 7.7627 11.9921 7.41221 12.2467L4.61204 14.2812C3.82833 14.8506 2.77385 14.0844 3.0732 13.1631L4.14277 9.87132C4.27665 9.4593 4.12999 9.00793 3.7795 8.75329L0.979333 6.71885C0.195619 6.14945 0.598395 4.90983 1.56712 4.90983H5.02832C5.46154 4.90983 5.8455 4.63087 5.97937 4.21885L7.04894 0.92705Z"/></symbol></svg>