<svg width="96" height="96" viewBox="0 0 96 96" fill="none" xmlns="http://www.w3.org/2000/svg">
<path d="M7.06748e-05 47.955C0.0450707 21.435 21.5251 -0.0299686 48.0301 3.14082e-05C74.5651 0.0300314 96.0751 21.585 96.0001 48.09C95.9251 74.61 74.4151 96.06 47.9401 96C21.4051 95.94 -0.0449293 74.445 7.06748e-05 47.955ZM48.0301 90.375C71.4001 90.345 90.4201 71.295 90.3751 47.955C90.3151 24.6 71.3551 5.64003 48.0151 5.64003C24.6601 5.62503 5.62507 24.66 5.64007 48.015C5.64007 71.37 24.6901 90.39 48.0301 90.375Z" fill="#F84147"/>
<path d="M45.4686 53.9484C45.4897 55.3301 46.6182 56.4375 47.9998 56.4375C49.3815 56.4375 50.51 55.3195 50.5311 53.9484L51.3748 31.2094C51.4276 30.3445 51.1111 29.5008 50.4994 28.8469C49.8455 28.1508 48.9385 27.75 47.9998 27.75C47.0611 27.75 46.1541 28.1508 45.5002 28.8469C44.8885 29.5008 44.5721 30.3445 44.6248 31.2094L45.4686 53.9484Z" fill="#F84147"/>
<path d="M48 68.25C49.864 68.25 51.375 66.739 51.375 64.875C51.375 63.011 49.864 61.5 48 61.5C46.136 61.5 44.625 63.011 44.625 64.875C44.625 66.739 46.136 68.25 48 68.25Z" fill="#F84147"/>
</svg>
