<svg width="96" height="96" viewBox="0 0 96 96" fill="none" xmlns="http://www.w3.org/2000/svg">
<path d="M7.06748e-05 47.955C0.0450707 21.435 21.5251 -0.0299686 48.0301 3.14082e-05C74.5651 0.0300314 96.0751 21.585 96.0001 48.09C95.9251 74.61 74.4151 96.06 47.9401 96C21.4051 95.94 -0.0449293 74.445 7.06748e-05 47.955ZM48.0301 90.375C71.4001 90.345 90.4201 71.295 90.3751 47.955C90.3151 24.6 71.3551 5.64003 48.0151 5.64003C24.6601 5.62503 5.62507 24.66 5.64007 48.015C5.64007 71.37 24.6901 90.39 48.0301 90.375Z" fill="#50A055"/>
<path d="M42.2101 57.4655C43.3801 56.2505 44.5051 55.0505 45.6751 53.8955C52.5451 47.0105 59.4151 40.1405 66.3001 33.2705C66.5851 32.9855 66.8551 32.7005 67.1701 32.4455C68.2951 31.5155 69.9151 31.5905 70.9201 32.6105C71.9251 33.6005 72.0301 35.1605 71.1751 36.3005C71.0101 36.5255 70.8151 36.7205 70.6201 36.9155C61.9051 45.6305 53.2051 54.3455 44.4901 63.0455C44.2651 63.2705 44.0251 63.5105 43.7701 63.6905C42.5851 64.5455 41.1301 64.3805 39.9751 63.2255C37.6501 60.9155 35.3401 58.6055 33.0301 56.2805C30.4651 53.7155 27.9001 51.1505 25.3351 48.6005C24.4951 47.7605 24.0601 46.8155 24.3751 45.6155C24.9451 43.4855 27.4951 42.8555 29.1601 44.4455C30.4801 45.7055 31.7401 47.0255 33.0301 48.3155C35.8801 51.1655 38.7151 54.0005 41.5651 56.8505C41.7151 57.0305 41.9101 57.1805 42.2101 57.4655Z" fill="#50A055"/>
</svg>
